<?xml version="1.0" encoding="iso-8859-1"?>
<!-- Generator: Adobe Illustrator 19.0.0, SVG Export Plug-In . SVG Version: 6.00 Build 0)  -->
<svg version="1.1" id="Layer_1" xmlns="http://www.w3.org/2000/svg" xmlns:xlink="http://www.w3.org/1999/xlink" x="0px" y="0px"
	 viewBox="0 0 512 512" style="enable-background:new 0 0 512 512;" xml:space="preserve">
<path style="fill:#495A79;" d="M490.1,202.899l-181-181C294.4,7.5,275.199,0,255.999,0s-38.401,7.5-53.101,21.899L123.4,102.4
	l-21,21l-80.501,79.499C-7.2,232.3-7.2,279.699,21.899,309.1l181,181c14.699,14.4,33.9,21.9,53.1,21.9s38.401-7.5,53.101-21.899
	l79.499-80.501l21-21l80.501-79.499C519.2,279.699,519.2,232.301,490.1,202.899z"/>
<path style="fill:#42516D;" d="M490.1,309.101l-80.501,79.498l-21,21L309.1,490.1c-14.7,14.4-33.901,21.9-53.101,21.9V0
	c19.2,0,38.401,7.5,53.101,21.899l181,181C519.2,232.301,519.2,279.699,490.1,309.101z"/>
<path style="fill:#E0E4EC;" d="M468.799,224.2l-181-181c-9-8.701-20.4-13.2-31.8-13.2c-11.4,0-22.8,4.499-31.8,13.2l-181,181
	c-17.701,17.699-17.701,45.899,0,63.6l181,181c8.399,8.699,20.099,12.9,31.8,12.9c11.701,0,23.401-4.2,31.8-12.9l181-181
	C486.5,270.099,486.5,241.899,468.799,224.2z"/>
<path style="fill:#D1D7E3;" d="M468.799,287.8l-181,181c-8.399,8.699-20.099,12.9-31.8,12.9V30c11.4,0,22.8,4.499,31.8,13.2l181,181
	C486.5,241.899,486.5,270.099,468.799,287.8z"/>
<rect x="141.475" y="141.471" transform="matrix(0.7071 -0.7071 0.7071 0.7071 -106.0374 256.003)" style="fill:#FFBC33;" width="229.058" height="229.058"/>
<polygon style="fill:#F39E31;" points="417.972,256 255.999,94.028 255.999,417.972 "/>
<polygon style="fill:#495A79;" points="255.999,235 123.4,102.4 102.399,123.401 255.999,277 388.598,409.6 409.599,388.599 "/>
<polygon style="fill:#42516D;" points="255.999,235 255.999,277 388.598,409.6 409.599,388.599 "/>
<g>
</g>
<g>
</g>
<g>
</g>
<g>
</g>
<g>
</g>
<g>
</g>
<g>
</g>
<g>
</g>
<g>
</g>
<g>
</g>
<g>
</g>
<g>
</g>
<g>
</g>
<g>
</g>
<g>
</g>
</svg>
