<?xml version="1.0" encoding="iso-8859-1"?>
<!-- Generator: Adobe Illustrator 19.0.0, SVG Export Plug-In . SVG Version: 6.00 Build 0)  -->
<svg version="1.1" id="Layer_1" xmlns="http://www.w3.org/2000/svg" xmlns:xlink="http://www.w3.org/1999/xlink" x="0px" y="0px"
	 viewBox="0 0 512.001 512.001" style="enable-background:new 0 0 512.001 512.001;" xml:space="preserve">
<path style="fill:#FF5050;" d="M346.329,0H165.671c-10.059,0-19.705,3.995-26.817,11.109L11.109,138.853
	C3.995,145.965,0,155.612,0,165.671V346.33c0,10.059,3.995,19.705,11.109,26.817l127.745,127.745
	c7.112,7.112,16.759,11.109,26.817,11.109H346.33c10.059,0,19.705-3.995,26.817-11.109l127.745-127.745
	c7.112-7.112,11.109-16.76,11.109-26.817V165.671c0-10.059-3.995-19.705-11.109-26.817L373.147,11.109
	C366.035,3.995,356.388,0,346.329,0z"/>
<path style="fill:#C84146;" d="M94.815,379.259c0-171.838,106.362-318.739,256.799-378.737C349.864,0.275,348.117,0,346.329,0
	H165.671c-10.059,0-19.705,3.995-26.817,11.109L11.109,138.853C3.996,145.965,0,155.611,0,165.671V346.33
	c0,10.059,3.996,19.705,11.109,26.817l93.103,93.103C98.114,438.209,94.815,409.126,94.815,379.259z"/>
<g>
	<path style="fill:#FFFFFF;" d="M246.519,187.259h-75.852c-6.546,0-11.852,5.306-11.852,11.852s5.306,11.852,11.852,11.852h26.074
		v101.926c0,6.546,5.306,11.852,11.852,11.852c6.546,0,11.852-5.306,11.852-11.852V210.963h26.074
		c6.546,0,11.852-5.306,11.852-11.852S253.064,187.259,246.519,187.259z"/>
	<path style="fill:#FFFFFF;" d="M312.889,187.259c-27.444,0-49.778,22.329-49.778,49.778v37.926
		c0,27.449,22.334,49.778,49.778,49.778s49.778-22.329,49.778-49.778v-37.926C362.667,209.588,340.333,187.259,312.889,187.259z
		 M338.963,274.963c0,14.38-11.694,26.074-26.074,26.074s-26.074-11.694-26.074-26.074v-37.926c0-14.38,11.694-26.074,26.074-26.074
		s26.074,11.694,26.074,26.074V274.963z"/>
	<path style="fill:#FFFFFF;" d="M421.926,187.259h-33.185c-6.546,0-11.852,5.306-11.852,11.852v113.778
		c0,6.546,5.306,11.852,11.852,11.852c6.546,0,11.852-5.306,11.852-11.852v-35.556h21.333c24.833,0,45.037-20.204,45.037-45.037
		S446.759,187.259,421.926,187.259z M421.926,253.63h-21.333v-42.667h21.333c11.759,0,21.333,9.569,21.333,21.333
		S433.685,253.63,421.926,253.63z"/>
	<path style="fill:#FFFFFF;" d="M109.037,210.963c12.574,0,21.333,6.871,21.333,13.037c0,6.546,5.306,11.852,11.852,11.852
		c6.546,0,11.852-5.306,11.852-11.852c0-20.602-19.787-36.741-45.037-36.741S64,203.398,64,224
		c0,28.495,25.695,37.676,41.047,43.162c21.666,7.736,25.324,12.68,25.324,20.838c0,6.167-8.76,13.037-21.333,13.037
		S87.704,294.167,87.704,288c0-6.546-5.306-11.852-11.852-11.852S64,281.454,64,288c0,20.602,19.787,36.741,45.037,36.741
		s45.037-16.139,45.037-36.741c0-28.495-25.695-37.676-41.047-43.162c-21.666-7.736-25.324-12.68-25.324-20.838
		C87.704,217.833,96.463,210.963,109.037,210.963z"/>
</g>
<g>
</g>
<g>
</g>
<g>
</g>
<g>
</g>
<g>
</g>
<g>
</g>
<g>
</g>
<g>
</g>
<g>
</g>
<g>
</g>
<g>
</g>
<g>
</g>
<g>
</g>
<g>
</g>
<g>
</g>
</svg>
